<svg width="80" height="80" viewBox="0 0 80 80" fill="none" xmlns="http://www.w3.org/2000/svg">
<circle cx="40" cy="40" r="40" fill="#FFB3A4"/>
<path d="M52.5 41.3125V22.25C52.5 21.6975 52.2805 21.1676 51.8898 20.7769C51.4991 20.3862 50.9692 20.1667 50.4167 20.1667C49.8641 20.1667 49.3342 20.3862 48.9435 20.7769C48.5528 21.1676 48.3333 21.6975 48.3333 22.25V41.3125C46.5291 41.8364 44.9439 42.9324 43.8167 44.4354C42.6894 45.9384 42.0811 47.7671 42.0833 49.6459C42.0833 53.9167 45.25 61.7292 50.4167 61.7292C55.5833 61.7292 58.75 53.9167 58.75 49.6459C58.7523 47.7671 58.1439 45.9384 57.0167 44.4354C55.8894 42.9324 54.3043 41.8364 52.5 41.3125V41.3125ZM50.4167 57.6667C48.75 57.6667 46.25 52.9375 46.25 49.75C46.199 48.5908 46.6084 47.4584 47.3889 46.5998C48.1695 45.7412 49.2578 45.2261 50.4167 45.1667C51.5755 45.2261 52.6639 45.7412 53.4444 46.5998C54.2249 47.4584 54.6343 48.5908 54.5833 49.75C54.5833 52.9375 52.0833 57.6667 50.4167 57.6667ZM35.8333 20.1667C35.2808 20.1667 34.7509 20.3862 34.3602 20.7769C33.9695 21.1676 33.75 21.6975 33.75 22.25V33.625L31.6667 35.0209V22.25C31.6667 21.6975 31.4472 21.1676 31.0565 20.7769C30.6658 20.3862 30.1359 20.1667 29.5833 20.1667C29.0308 20.1667 28.5009 20.3862 28.1102 20.7769C27.7195 21.1676 27.5 21.6975 27.5 22.25V35.0209L25.4167 33.625V22.25C25.4167 21.6975 25.1972 21.1676 24.8065 20.7769C24.4158 20.3862 23.8859 20.1667 23.3333 20.1667C22.7808 20.1667 22.2509 20.3862 21.8602 20.7769C21.4695 21.1676 21.25 21.6975 21.25 22.25V34.75C21.2518 35.0932 21.3383 35.4305 21.5018 35.7322C21.6654 36.0339 21.9009 36.2905 22.1875 36.4792L27.5 40.0417V59.75C27.5 60.3026 27.7195 60.8325 28.1102 61.2232C28.5009 61.6139 29.0308 61.8334 29.5833 61.8334C30.1359 61.8334 30.6658 61.6139 31.0565 61.2232C31.4472 60.8325 31.6667 60.3026 31.6667 59.75V40.0417L36.9792 36.4792C37.2658 36.2905 37.5013 36.0339 37.6648 35.7322C37.8284 35.4305 37.9149 35.0932 37.9167 34.75V22.25C37.9167 21.6975 37.6972 21.1676 37.3065 20.7769C36.9158 20.3862 36.3859 20.1667 35.8333 20.1667V20.1667Z" fill="#DD8270"/>
</svg>
