<svg width="80" height="80" viewBox="0 0 80 80" fill="none" xmlns="http://www.w3.org/2000/svg">
<circle cx="40" cy="40" r="40" fill="#D3DE9A"/>
<path d="M60.2292 25.8334L55.1667 20.7709C54.7763 20.3828 54.2483 20.165 53.6979 20.165C53.1475 20.165 52.6195 20.3828 52.2292 20.7709L40.6042 32.3959C40.4111 32.5905 40.2583 32.8214 40.1546 33.0752C40.051 33.329 39.9984 33.6008 40 33.875V38.9167C40 39.4692 40.2195 39.9991 40.6102 40.3898C41.0009 40.7805 41.5308 41 42.0833 41H47.125C47.3992 41.0016 47.671 40.9491 47.9248 40.8454C48.1786 40.7417 48.4095 40.5889 48.6042 40.3959L60.2292 28.7709C60.6172 28.3805 60.835 27.8525 60.835 27.3021C60.835 26.7517 60.6172 26.2237 60.2292 25.8334V25.8334ZM46.25 36.8334H44.1667V34.75L53.7083 25.2084L55.7917 27.2917L46.25 36.8334ZM54.5833 41C54.0308 41 53.5009 41.2195 53.1102 41.6102C52.7195 42.0009 52.5 42.5308 52.5 43.0834C52.5 46.9511 50.9635 50.6604 48.2286 53.3953C45.4937 56.1302 41.7844 57.6667 37.9167 57.6667H26.2708L27.6042 56.3542C27.7994 56.1605 27.9544 55.9301 28.0602 55.6762C28.166 55.4224 28.2204 55.15 28.2204 54.875C28.2204 54.6 28.166 54.3277 28.0602 54.0738C27.9544 53.8199 27.7994 53.5895 27.6042 53.3959C25.5644 51.3563 24.1753 48.7577 23.6125 45.9287C23.0498 43.0997 23.3386 40.1673 24.4424 37.5024C25.5463 34.8375 27.4156 32.5598 29.814 30.9574C32.2125 29.355 35.0322 28.4998 37.9167 28.5C38.4692 28.5 38.9991 28.2805 39.3898 27.8898C39.7805 27.4991 40 26.9692 40 26.4167C40 25.8642 39.7805 25.3343 39.3898 24.9436C38.9991 24.5529 38.4692 24.3334 37.9167 24.3334V24.3334C34.3905 24.3449 30.9392 25.3506 27.9587 27.2349C24.9783 29.1192 22.5896 31.8057 21.0668 34.9861C19.5441 38.1665 18.949 41.7118 19.3499 45.2151C19.7508 48.7183 21.1314 52.0376 23.3333 54.7917L19.7708 58.2709C19.4818 58.5638 19.2859 58.9359 19.2081 59.34C19.1302 59.7441 19.1738 60.1623 19.3333 60.5417C19.4896 60.9221 19.755 61.2478 20.0961 61.4777C20.4372 61.7075 20.8387 61.8313 21.25 61.8334H37.9167C40.3789 61.8334 42.8171 61.3484 45.092 60.4061C47.3668 59.4638 49.4338 58.0827 51.1749 56.3416C52.916 54.6005 54.2971 52.5335 55.2394 50.2587C56.1817 47.9838 56.6667 45.5456 56.6667 43.0834C56.6667 42.5308 56.4472 42.0009 56.0565 41.6102C55.6658 41.2195 55.1359 41 54.5833 41Z" fill="#B5C07A"/>
</svg>
