<svg width="80" height="80" viewBox="0 0 80 80" fill="none" xmlns="http://www.w3.org/2000/svg">
<circle cx="40" cy="40" r="40" fill="#D7E2D6"/>
<path d="M16.0833 42.0416V52.4583C16.0833 53.0108 16.3028 53.5408 16.6935 53.9315C17.0842 54.3222 17.6141 54.5416 18.1667 54.5416H20.25C20.25 56.1993 20.9085 57.789 22.0806 58.9611C23.2527 60.1332 24.8424 60.7916 26.5 60.7916C28.1576 60.7916 29.7473 60.1332 30.9194 58.9611C32.0915 57.789 32.75 56.1993 32.75 54.5416H45.25C45.25 56.1993 45.9085 57.789 47.0806 58.9611C48.2527 60.1332 49.8424 60.7916 51.5 60.7916C53.1576 60.7916 54.7473 60.1332 55.9194 58.9611C57.0915 57.789 57.75 56.1993 57.75 54.5416H59.8333C60.3859 54.5416 60.9158 54.3222 61.3065 53.9315C61.6972 53.5408 61.9167 53.0108 61.9167 52.4583V27.4583C61.9167 25.8007 61.2582 24.211 60.0861 23.0389C58.914 21.8668 57.3243 21.2083 55.6667 21.2083H36.9167C35.2591 21.2083 33.6694 21.8668 32.4973 23.0389C31.3251 24.211 30.6667 25.8007 30.6667 27.4583V31.625H26.5C25.5297 31.625 24.5728 31.8509 23.7049 32.2848C22.8371 32.7187 22.0822 33.3488 21.5 34.125L16.5 40.7916C16.4391 40.8822 16.3901 40.9802 16.3542 41.0833L16.2292 41.3125C16.1372 41.5448 16.0878 41.7918 16.0833 42.0416V42.0416ZM49.4167 54.5416C49.4167 54.1296 49.5389 53.7268 49.7678 53.3842C49.9967 53.0416 50.3221 52.7746 50.7027 52.6169C51.0834 52.4592 51.5023 52.418 51.9064 52.4983C52.3106 52.5787 52.6818 52.7771 52.9731 53.0685C53.2645 53.3599 53.4629 53.7311 53.5433 54.1352C53.6237 54.5393 53.5824 54.9582 53.4248 55.3389C53.2671 55.7196 53 56.045 52.6574 56.2739C52.3148 56.5028 51.912 56.625 51.5 56.625C50.9475 56.625 50.4176 56.4055 50.0269 56.0148C49.6362 55.6241 49.4167 55.0942 49.4167 54.5416ZM34.8333 27.4583C34.8333 26.9058 35.0528 26.3759 35.4435 25.9852C35.8342 25.5945 36.3641 25.375 36.9167 25.375H55.6667C56.2192 25.375 56.7491 25.5945 57.1398 25.9852C57.5305 26.3759 57.75 26.9058 57.75 27.4583V50.375H56.125C55.5392 49.7305 54.8252 49.2155 54.0287 48.8632C53.2323 48.5108 52.3709 48.3288 51.5 48.3288C50.6291 48.3288 49.7678 48.5108 48.9713 48.8632C48.1748 49.2155 47.4608 49.7305 46.875 50.375H34.8333V27.4583ZM30.6667 39.9583H22.3333L24.8333 36.625C25.0274 36.3662 25.279 36.1562 25.5683 36.0116C25.8576 35.8669 26.1766 35.7916 26.5 35.7916H30.6667V39.9583ZM24.4167 54.5416C24.4167 54.1296 24.5389 53.7268 24.7678 53.3842C24.9967 53.0416 25.3221 52.7746 25.7027 52.6169C26.0834 52.4592 26.5023 52.418 26.9064 52.4983C27.3106 52.5787 27.6818 52.7771 27.9731 53.0685C28.2645 53.3599 28.4629 53.7311 28.5433 54.1352C28.6237 54.5393 28.5824 54.9582 28.4248 55.3389C28.2671 55.7196 28 56.045 27.6574 56.2739C27.3148 56.5028 26.912 56.625 26.5 56.625C25.9475 56.625 25.4176 56.4055 25.0269 56.0148C24.6362 55.6241 24.4167 55.0942 24.4167 54.5416ZM20.25 44.125H30.6667V49.9166C29.4372 48.8178 27.8232 48.2494 26.1764 48.3352C24.5297 48.4211 22.9836 49.1542 21.875 50.375H20.25V44.125Z" fill="#BDCDBB"/>
</svg>
