<svg width="34" height="34" viewBox="0 0 34 34" fill="none" xmlns="http://www.w3.org/2000/svg">
<path d="M31.8333 0.333374H2.16668C1.68045 0.333374 1.21413 0.526528 0.870315 0.870345C0.526498 1.21416 0.333344 1.68048 0.333344 2.16671V31.8334C0.333344 32.0741 0.380764 32.3125 0.472898 32.535C0.565031 32.7574 0.700074 32.9595 0.870315 33.1297C1.04056 33.3 1.24266 33.435 1.46509 33.5272C1.68752 33.6193 1.92592 33.6667 2.16668 33.6667H18.1333V20.75H13.8V15.75H18.1333V12C18.0436 11.1196 18.1475 10.2303 18.4379 9.39427C18.7282 8.55829 19.198 7.79595 19.8141 7.16073C20.4303 6.5255 21.178 6.03278 22.0047 5.7171C22.8315 5.40143 23.7173 5.27046 24.6 5.33337C25.8972 5.32539 27.1938 5.39217 28.4833 5.53337V10.0334H25.8333C23.7333 10.0334 23.3333 11.0334 23.3333 12.4834V15.7H28.3333L27.6833 20.7H23.3333V33.6667H31.8333C32.0741 33.6667 32.3125 33.6193 32.5349 33.5272C32.7574 33.435 32.9595 33.3 33.1297 33.1297C33.2999 32.9595 33.435 32.7574 33.5271 32.535C33.6193 32.3125 33.6667 32.0741 33.6667 31.8334V2.16671C33.6667 1.92595 33.6193 1.68755 33.5271 1.46512C33.435 1.24269 33.2999 1.04059 33.1297 0.870345C32.9595 0.700104 32.7574 0.565062 32.5349 0.472928C32.3125 0.380795 32.0741 0.333374 31.8333 0.333374V0.333374Z" fill="#D7E2D6"/>
</svg>
