<svg width="34" height="34" viewBox="0 0 34 34" fill="none" xmlns="http://www.w3.org/2000/svg">
<path d="M17 12.8667C16.1825 12.8667 15.3834 13.1091 14.7037 13.5633C14.0239 14.0175 13.4942 14.663 13.1813 15.4183C12.8685 16.1736 12.7866 17.0046 12.9461 17.8064C13.1056 18.6082 13.4992 19.3447 14.0773 19.9227C14.6554 20.5008 15.3918 20.8945 16.1936 21.054C16.9954 21.2134 17.8265 21.1316 18.5818 20.8187C19.337 20.5059 19.9826 19.9761 20.4368 19.2964C20.8909 18.6167 21.1333 17.8175 21.1333 17C21.1333 16.4572 21.0264 15.9198 20.8187 15.4183C20.611 14.9168 20.3065 14.4611 19.9227 14.0773C19.5389 13.6935 19.0832 13.3891 18.5818 13.1813C18.0803 12.9736 17.5428 12.8667 17 12.8667V12.8667ZM33.55 8.78337C33.5412 7.4963 33.3042 6.22099 32.85 5.01671C32.5155 4.13547 31.9979 3.3352 31.3314 2.66868C30.6649 2.00217 29.8646 1.48457 28.9833 1.15004C27.7791 0.695814 26.5037 0.458809 25.2167 0.450041C23.0667 0.333374 22.4333 0.333374 17 0.333374C11.5667 0.333374 10.9333 0.333374 8.78334 0.450041C7.49627 0.458809 6.22096 0.695814 5.01668 1.15004C4.13544 1.48457 3.33517 2.00217 2.66865 2.66868C2.00214 3.3352 1.48454 4.13547 1.15001 5.01671C0.695783 6.22099 0.458778 7.4963 0.45001 8.78337C0.333343 10.9334 0.333344 11.5667 0.333344 17C0.333344 22.4334 0.333343 23.0667 0.45001 25.2167C0.46795 26.5083 0.704634 27.7875 1.15001 29C1.48306 29.8772 2.00022 30.6729 2.66668 31.3334C3.33033 32.0039 4.13233 32.5215 5.01668 32.85C6.22096 33.3043 7.49627 33.5413 8.78334 33.55C10.9333 33.6667 11.5667 33.6667 17 33.6667C22.4333 33.6667 23.0667 33.6667 25.2167 33.55C26.5037 33.5413 27.7791 33.3043 28.9833 32.85C29.8677 32.5215 30.6697 32.0039 31.3333 31.3334C31.9998 30.6729 32.517 29.8772 32.85 29C33.3038 27.7898 33.5408 26.5092 33.55 25.2167C33.6667 23.0667 33.6667 22.4334 33.6667 17C33.6667 11.5667 33.6667 10.9334 33.55 8.78337V8.78337ZM29.3167 22.1167C29.2632 23.1452 29.0437 24.1583 28.6667 25.1167C28.3431 25.9162 27.8621 26.6424 27.2523 27.2523C26.6424 27.8622 25.9162 28.3432 25.1167 28.6667C24.1492 29.0227 23.1305 29.2197 22.1 29.25C20.7833 29.25 20.4333 29.25 17 29.25C13.5667 29.25 13.2167 29.25 11.9 29.25C10.8696 29.2197 9.85082 29.0227 8.88334 28.6667C8.05685 28.3596 7.31047 27.8696 6.70001 27.2334C6.09612 26.6355 5.62975 25.9132 5.33334 25.1167C4.97594 24.1502 4.78435 23.1303 4.76668 22.1C4.76668 20.7834 4.76668 20.4334 4.76668 17C4.76668 13.5667 4.76668 13.2167 4.76668 11.9C4.78435 10.8698 4.97594 9.84985 5.33334 8.88337C5.64048 8.05688 6.13047 7.3105 6.76668 6.70004C7.36723 6.09941 8.08878 5.63353 8.88334 5.33337C9.85082 4.97738 10.8696 4.78039 11.9 4.75004V4.75004C13.2167 4.75004 13.5667 4.75004 17 4.75004C20.4333 4.75004 20.7833 4.75004 22.1 4.75004C23.1305 4.78039 24.1492 4.97738 25.1167 5.33337C25.9432 5.64051 26.6896 6.1305 27.3 6.76671C27.9039 7.36462 28.3703 8.08693 28.6667 8.88337C29.0227 9.85085 29.2197 10.8696 29.25 11.9C29.25 13.2167 29.25 13.5667 29.25 17C29.25 20.4334 29.3667 20.7834 29.3167 22.1V22.1167ZM26.65 9.71671C26.4516 9.17835 26.1387 8.68945 25.733 8.28373C25.3273 7.87802 24.8384 7.56515 24.3 7.36671C23.5608 7.11047 22.7823 6.98636 22 7.00004C20.7 7.00004 20.3333 7.00004 17 7.00004C13.6667 7.00004 13.3 7.00004 12 7.00004C11.2138 7.00773 10.4351 7.15443 9.70001 7.43337C9.16989 7.6228 8.68617 7.9229 8.28098 8.31371C7.8758 8.70452 7.55845 9.1771 7.35001 9.70004C7.10797 10.4423 6.98973 11.2194 7.00001 12C7.00001 13.3 7.00001 13.6667 7.00001 17C7.00001 20.3334 7.00001 20.7 7.00001 22C7.01653 22.7854 7.16296 23.5625 7.43334 24.3C7.63178 24.8384 7.94465 25.3273 8.35037 25.733C8.75608 26.1387 9.24498 26.4516 9.78334 26.65C10.4945 26.9116 11.2428 27.0578 12 27.0834V27.0834C13.3 27.0834 13.6667 27.0834 17 27.0834C20.3333 27.0834 20.7 27.0834 22 27.0834C22.7862 27.0757 23.5649 26.929 24.3 26.65C24.8384 26.4516 25.3273 26.1387 25.733 25.733C26.1387 25.3273 26.4516 24.8384 26.65 24.3C26.929 23.5649 27.0757 22.7863 27.0833 22C27.0833 20.7 27.0833 20.3334 27.0833 17C27.0833 13.6667 27.0833 13.3 27.0833 12C27.0838 11.213 26.9368 10.4329 26.65 9.70004V9.71671ZM17 23.3667C16.1647 23.3667 15.3376 23.2019 14.5661 22.8818C13.7946 22.5616 13.0939 22.0924 12.504 21.5009C11.9141 20.9095 11.4467 20.2075 11.1286 19.4352C10.8104 18.6629 10.6478 17.8353 10.65 17V17C10.65 15.7401 11.0238 14.5085 11.7242 13.4612C12.4245 12.4138 13.4198 11.5978 14.5841 11.1164C15.7485 10.635 17.0294 10.5099 18.2649 10.757C19.5004 11.004 20.6348 11.612 21.5245 12.5041C22.4142 13.3961 23.0193 14.5321 23.263 15.7682C23.5068 17.0043 23.3783 18.285 22.8939 19.448C22.4095 20.6111 21.5909 21.6043 20.5417 22.3018C19.4925 22.9994 18.2599 23.37 17 23.3667V23.3667ZM23.6667 11.8834C23.2982 11.8444 22.9573 11.6704 22.7095 11.395C22.4617 11.1196 22.3246 10.7622 22.3246 10.3917C22.3246 10.0212 22.4617 9.66384 22.7095 9.38842C22.9573 9.11301 23.2982 8.93904 23.6667 8.90004V8.90004C24.0351 8.93904 24.3761 9.11301 24.6239 9.38842C24.8717 9.66384 25.0088 10.0212 25.0088 10.3917C25.0088 10.7622 24.8717 11.1196 24.6239 11.395C24.3761 11.6704 24.0351 11.8444 23.6667 11.8834Z" fill="#FFB3A4"/>
</svg>
