<svg width="213" height="213" viewBox="0 0 213 213" fill="none" xmlns="http://www.w3.org/2000/svg">
<g filter="url(#filter0_d_39_155)">
<circle cx="106.5" cy="102.5" r="102.5" fill="#525252"/>
</g>
<g filter="url(#filter1_d_39_155)">
<path d="M111.929 114.189H90.2121C88.7721 114.189 87.3912 114.761 86.373 115.779C85.3548 116.797 84.7828 118.178 84.7828 119.618C84.7828 121.058 85.3548 122.439 86.373 123.457C87.3912 124.475 88.7721 125.047 90.2121 125.047H111.929C113.369 125.047 114.75 124.475 115.768 123.457C116.787 122.439 117.359 121.058 117.359 119.618C117.359 118.178 116.787 116.797 115.768 115.779C114.75 114.761 113.369 114.189 111.929 114.189ZM133.647 59.8954H127.24C126.12 56.7271 124.047 53.9828 121.306 52.0388C118.565 50.0948 115.29 49.0462 111.929 49.0367H101.071C97.7103 49.0462 94.435 50.0948 91.6939 52.0388C88.9529 53.9828 86.8802 56.7271 85.76 59.8954H79.3534C75.0336 59.8954 70.8907 61.6114 67.8361 64.666C64.7815 67.7206 63.0655 71.8635 63.0655 76.1833V141.335C63.0655 145.655 64.7815 149.798 67.8361 152.852C70.8907 155.907 75.0336 157.623 79.3534 157.623H133.647C137.966 157.623 142.109 155.907 145.164 152.852C148.219 149.798 149.935 145.655 149.935 141.335V76.1833C149.935 71.8635 148.219 67.7206 145.164 64.666C142.109 61.6114 137.966 59.8954 133.647 59.8954ZM95.6414 65.3247C95.6414 63.8848 96.2134 62.5038 97.2316 61.4856C98.2498 60.4674 99.6308 59.8954 101.071 59.8954H111.929C113.369 59.8954 114.75 60.4674 115.768 61.4856C116.787 62.5038 117.359 63.8848 117.359 65.3247V70.754H95.6414V65.3247ZM139.076 141.335C139.076 142.775 138.504 144.156 137.486 145.174C136.468 146.192 135.087 146.764 133.647 146.764H79.3534C77.9135 146.764 76.5325 146.192 75.5143 145.174C74.4961 144.156 73.9241 142.775 73.9241 141.335V76.1833C73.9241 74.7434 74.4961 73.3624 75.5143 72.3442C76.5325 71.326 77.9135 70.754 79.3534 70.754H84.7828V76.1833C84.7828 77.6233 85.3548 79.0042 86.373 80.0224C87.3912 81.0406 88.7721 81.6127 90.2121 81.6127H122.788C124.228 81.6127 125.609 81.0406 126.627 80.0224C127.645 79.0042 128.217 77.6233 128.217 76.1833V70.754H133.647C135.087 70.754 136.468 71.326 137.486 72.3442C138.504 73.3624 139.076 74.7434 139.076 76.1833V141.335ZM122.788 92.4713H90.2121C88.7721 92.4713 87.3912 93.0433 86.373 94.0615C85.3548 95.0797 84.7828 96.4607 84.7828 97.9006C84.7828 99.3406 85.3548 100.722 86.373 101.74C87.3912 102.758 88.7721 103.33 90.2121 103.33H122.788C124.228 103.33 125.609 102.758 126.627 101.74C127.645 100.722 128.217 99.3406 128.217 97.9006C128.217 96.4607 127.645 95.0797 126.627 94.0615C125.609 93.0433 124.228 92.4713 122.788 92.4713Z" fill="#DCDCDC"/>
</g>
<defs>
<filter id="filter0_d_39_155" x="0" y="0" width="213" height="213" filterUnits="userSpaceOnUse" color-interpolation-filters="sRGB">
<feFlood flood-opacity="0" result="BackgroundImageFix"/>
<feColorMatrix in="SourceAlpha" type="matrix" values="0 0 0 0 0 0 0 0 0 0 0 0 0 0 0 0 0 0 127 0" result="hardAlpha"/>
<feOffset dy="4"/>
<feGaussianBlur stdDeviation="2"/>
<feComposite in2="hardAlpha" operator="out"/>
<feColorMatrix type="matrix" values="0 0 0 0 0 0 0 0 0 0 0 0 0 0 0 0 0 0 0.25 0"/>
<feBlend mode="normal" in2="BackgroundImageFix" result="effect1_dropShadow_39_155"/>
<feBlend mode="normal" in="SourceGraphic" in2="effect1_dropShadow_39_155" result="shape"/>
</filter>
<filter id="filter1_d_39_155" x="37.3482" y="38.1781" width="138.304" height="140.304" filterUnits="userSpaceOnUse" color-interpolation-filters="sRGB">
<feFlood flood-opacity="0" result="BackgroundImageFix"/>
<feColorMatrix in="SourceAlpha" type="matrix" values="0 0 0 0 0 0 0 0 0 0 0 0 0 0 0 0 0 0 127 0" result="hardAlpha"/>
<feOffset dy="6"/>
<feGaussianBlur stdDeviation="2"/>
<feComposite in2="hardAlpha" operator="out"/>
<feColorMatrix type="matrix" values="0 0 0 0 0 0 0 0 0 0 0 0 0 0 0 0 0 0 0.25 0"/>
<feBlend mode="normal" in2="BackgroundImageFix" result="effect1_dropShadow_39_155"/>
<feBlend mode="normal" in="SourceGraphic" in2="effect1_dropShadow_39_155" result="shape"/>
</filter>
</defs>
</svg>
