<svg width="235" height="84" viewBox="0 0 235 84" fill="none" xmlns="http://www.w3.org/2000/svg">
<ellipse cx="48.2125" cy="25.0696" rx="23.9963" ry="24.0027" fill="#FFB3A4"/>
<ellipse cx="116.469" cy="24.0027" rx="23.9963" ry="24.0027" fill="#D7E2D6"/>
<ellipse cx="184.725" cy="24.0027" rx="23.9963" ry="24.0027" fill="#D3DE9A"/>
<ellipse cx="48.2126" cy="25.0697" rx="18.6638" ry="18.6688" fill="#DD8270"/>
<ellipse cx="116.469" cy="24.0028" rx="18.6638" ry="18.6688" fill="#BDCDBB"/>
<ellipse cx="184.725" cy="24.0028" rx="18.6638" ry="18.6688" fill="#B5C07A"/>
<mask id="path-7-outside-1_22_96" maskUnits="userSpaceOnUse" x="0.337646" y="60.964" width="235" height="23" fill="black">
<rect fill="white" x="0.337646" y="60.964" width="235" height="23"/>
<path d="M5.82112 61.964C6.83589 61.964 7.76764 62.0932 8.61637 62.3516C9.46509 62.5915 10.1939 62.979 10.8027 63.5142C11.4116 64.031 11.8821 64.6862 12.2142 65.4798C12.5463 66.2733 12.7124 67.2146 12.7124 68.3034C12.7124 69.3923 12.5371 70.3428 12.1865 71.1548C11.8544 71.9484 11.3839 72.6128 10.7751 73.148C10.1662 73.6647 9.43741 74.0523 8.58869 74.3107C7.73997 74.5691 6.80822 74.6982 5.79344 74.6982H3.69008V81.8959H1.33765V61.964H5.82112ZM3.69008 63.7634V72.8988H5.76576C8.79165 72.8988 10.3046 71.367 10.3046 68.3034C10.3046 66.8639 9.93558 65.7474 9.19756 64.9538C8.47799 64.1602 7.37096 63.7634 5.87647 63.7634H3.69008Z"/>
<path d="M28.1742 81.8959L26.8735 78.1586H19.9546L18.6261 81.8959H16.329L22.1409 66.3933H24.8532L30.6374 81.8959H28.1742ZM20.5634 76.3869H26.2646L23.4694 68.2204L20.5634 76.3869Z"/>
<path d="M48.6296 66.3933V81.8959H45.4193L39.6904 68.9401V81.8959H37.5593V66.3933H40.8251L46.554 79.2106V66.3933H48.6296Z"/>
<path d="M67.3683 68.3588H62.7741V81.8959H60.5047V68.3588H55.9659V66.3933H67.3683V68.3588Z"/>
<path d="M73.7411 74.1446C73.7411 72.7051 73.9348 71.4685 74.3222 70.435C74.7097 69.4015 75.2263 68.5526 75.8721 67.8882C76.5178 67.2238 77.2559 66.7439 78.0861 66.4487C78.9349 66.1349 79.802 65.978 80.6877 65.978C81.5733 65.978 82.4312 66.1349 83.2615 66.4487C84.1102 66.7439 84.8575 67.2238 85.5032 67.8882C86.149 68.5526 86.6656 69.4015 87.0531 70.435C87.4405 71.4685 87.6343 72.7051 87.6343 74.1446C87.6343 75.5841 87.4405 76.8206 87.0531 77.8541C86.6656 78.8876 86.1398 79.7366 85.4756 80.401C84.8298 81.0654 84.0918 81.5544 83.2615 81.8682C82.4312 82.1635 81.5733 82.3111 80.6877 82.3111C79.802 82.3111 78.9441 82.1635 78.1138 81.8682C77.2835 81.5544 76.5363 81.0654 75.8721 80.401C75.2263 79.7366 74.7097 78.8876 74.3222 77.8541C73.9348 76.8206 73.7411 75.5841 73.7411 74.1446ZM76.0658 74.1446C76.0658 76.2485 76.4717 77.8357 77.2835 78.9061C78.1138 79.958 79.2485 80.484 80.6877 80.484C82.1268 80.484 83.2523 79.958 84.0641 78.9061C84.8944 77.8357 85.3095 76.2485 85.3095 74.1446C85.3095 72.0407 84.8944 70.4535 84.0641 69.3831C83.2523 68.3127 82.1268 67.7775 80.6877 67.7775C79.2485 67.7775 78.1138 68.3127 77.2835 69.3831C76.4717 70.435 76.0658 72.0222 76.0658 74.1446Z"/>
<path d="M107.273 66.3933V81.8959H104.063L98.3337 68.9401V81.8959H96.2027V66.3933H99.4685L105.197 79.2106V66.3933H107.273Z"/>
<path d="M133.811 61.964C135.877 61.964 137.39 62.3977 138.35 63.2651C139.327 64.1325 139.816 65.3321 139.816 66.8639C139.816 67.3807 139.733 67.879 139.567 68.3588C139.42 68.8202 139.198 69.2447 138.903 69.6322C138.626 70.0198 138.285 70.3612 137.879 70.6565C137.492 70.9333 137.067 71.1363 136.606 71.2655C137.104 71.3394 137.602 71.487 138.101 71.7085C138.599 71.9299 139.042 72.2437 139.429 72.6497C139.816 73.0373 140.13 73.5263 140.37 74.1169C140.61 74.7075 140.73 75.418 140.73 76.2485C140.73 77.2636 140.536 78.131 140.149 78.8507C139.78 79.5705 139.281 80.1611 138.654 80.6224C138.027 81.0654 137.307 81.3883 136.495 81.5914C135.702 81.7944 134.881 81.8959 134.032 81.8959H128.857V61.964H133.811ZM131.209 72.1791V80.0965H133.977C134.53 80.0965 135.056 80.0319 135.554 79.9027C136.071 79.7735 136.532 79.5613 136.938 79.266C137.344 78.9522 137.667 78.5554 137.907 78.0756C138.147 77.5773 138.267 76.9683 138.267 76.2485C138.267 74.9197 137.898 73.9139 137.16 73.231C136.422 72.5297 135.324 72.1791 133.866 72.1791H131.209ZM131.209 63.5973V70.4904H133.755C135.029 70.4904 135.96 70.1767 136.551 69.5492C137.16 68.9217 137.464 68.0543 137.464 66.947C137.464 65.7658 137.123 64.9169 136.44 64.4001C135.776 63.8649 134.881 63.5973 133.755 63.5973H131.209Z"/>
<path d="M158.396 81.8959L157.095 78.1586H150.176L148.848 81.8959H146.551L152.363 66.3933H155.075L160.859 81.8959H158.396ZM150.785 76.3869H156.487L153.691 68.2204L150.785 76.3869Z"/>
<path d="M176.416 81.8959L170.023 74.7813V81.8959H167.781V66.3933H170.023V73.0926L175.752 66.3933H178.464L172.043 73.7847L179.294 81.8959H176.416Z"/>
<path d="M194.945 74.9197H188.634V80.0411H195.747V81.8959H186.365V66.3933H195.747V68.2481H188.634V73.1203H194.945V74.9197Z"/>
<path d="M213.273 81.8959L209.232 76.1931H206.299V81.8959H204.057V66.3933H208.181C209.122 66.3933 209.98 66.4856 210.755 66.6701C211.529 66.8547 212.194 67.15 212.747 67.556C213.301 67.962 213.734 68.4788 214.048 69.1062C214.362 69.7153 214.518 70.4443 214.518 71.2932C214.518 72.5851 214.232 73.5817 213.661 74.283C213.089 74.9843 212.36 75.4918 211.474 75.8056L215.93 81.8959H213.273ZM206.299 68.1097V74.4768H208.125C209.509 74.4768 210.533 74.2369 211.197 73.757C211.88 73.2587 212.221 72.4375 212.221 71.2932C212.221 70.2043 211.88 69.4015 211.197 68.8848C210.533 68.368 209.546 68.1097 208.236 68.1097H206.299Z"/>
<path d="M233 66.3933L227.686 75.9163V81.8959H225.472V75.9163L220.075 66.3933H222.622L226.635 73.8678L230.731 66.3933H233Z"/>
</mask>
<path d="M5.82112 61.964C6.83589 61.964 7.76764 62.0932 8.61637 62.3516C9.46509 62.5915 10.1939 62.979 10.8027 63.5142C11.4116 64.031 11.8821 64.6862 12.2142 65.4798C12.5463 66.2733 12.7124 67.2146 12.7124 68.3034C12.7124 69.3923 12.5371 70.3428 12.1865 71.1548C11.8544 71.9484 11.3839 72.6128 10.7751 73.148C10.1662 73.6647 9.43741 74.0523 8.58869 74.3107C7.73997 74.5691 6.80822 74.6982 5.79344 74.6982H3.69008V81.8959H1.33765V61.964H5.82112ZM3.69008 63.7634V72.8988H5.76576C8.79165 72.8988 10.3046 71.367 10.3046 68.3034C10.3046 66.8639 9.93558 65.7474 9.19756 64.9538C8.47799 64.1602 7.37096 63.7634 5.87647 63.7634H3.69008Z" fill="#525252"/>
<path d="M28.1742 81.8959L26.8735 78.1586H19.9546L18.6261 81.8959H16.329L22.1409 66.3933H24.8532L30.6374 81.8959H28.1742ZM20.5634 76.3869H26.2646L23.4694 68.2204L20.5634 76.3869Z" fill="#525252"/>
<path d="M48.6296 66.3933V81.8959H45.4193L39.6904 68.9401V81.8959H37.5593V66.3933H40.8251L46.554 79.2106V66.3933H48.6296Z" fill="#525252"/>
<path d="M67.3683 68.3588H62.7741V81.8959H60.5047V68.3588H55.9659V66.3933H67.3683V68.3588Z" fill="#525252"/>
<path d="M73.7411 74.1446C73.7411 72.7051 73.9348 71.4685 74.3222 70.435C74.7097 69.4015 75.2263 68.5526 75.8721 67.8882C76.5178 67.2238 77.2559 66.7439 78.0861 66.4487C78.9349 66.1349 79.802 65.978 80.6877 65.978C81.5733 65.978 82.4312 66.1349 83.2615 66.4487C84.1102 66.7439 84.8575 67.2238 85.5032 67.8882C86.149 68.5526 86.6656 69.4015 87.0531 70.435C87.4405 71.4685 87.6343 72.7051 87.6343 74.1446C87.6343 75.5841 87.4405 76.8206 87.0531 77.8541C86.6656 78.8876 86.1398 79.7366 85.4756 80.401C84.8298 81.0654 84.0918 81.5544 83.2615 81.8682C82.4312 82.1635 81.5733 82.3111 80.6877 82.3111C79.802 82.3111 78.9441 82.1635 78.1138 81.8682C77.2835 81.5544 76.5363 81.0654 75.8721 80.401C75.2263 79.7366 74.7097 78.8876 74.3222 77.8541C73.9348 76.8206 73.7411 75.5841 73.7411 74.1446ZM76.0658 74.1446C76.0658 76.2485 76.4717 77.8357 77.2835 78.9061C78.1138 79.958 79.2485 80.484 80.6877 80.484C82.1268 80.484 83.2523 79.958 84.0641 78.9061C84.8944 77.8357 85.3095 76.2485 85.3095 74.1446C85.3095 72.0407 84.8944 70.4535 84.0641 69.3831C83.2523 68.3127 82.1268 67.7775 80.6877 67.7775C79.2485 67.7775 78.1138 68.3127 77.2835 69.3831C76.4717 70.435 76.0658 72.0222 76.0658 74.1446Z" fill="#525252"/>
<path d="M107.273 66.3933V81.8959H104.063L98.3337 68.9401V81.8959H96.2027V66.3933H99.4685L105.197 79.2106V66.3933H107.273Z" fill="#525252"/>
<path d="M133.811 61.964C135.877 61.964 137.39 62.3977 138.35 63.2651C139.327 64.1325 139.816 65.3321 139.816 66.8639C139.816 67.3807 139.733 67.879 139.567 68.3588C139.42 68.8202 139.198 69.2447 138.903 69.6322C138.626 70.0198 138.285 70.3612 137.879 70.6565C137.492 70.9333 137.067 71.1363 136.606 71.2655C137.104 71.3394 137.602 71.487 138.101 71.7085C138.599 71.9299 139.042 72.2437 139.429 72.6497C139.816 73.0373 140.13 73.5263 140.37 74.1169C140.61 74.7075 140.73 75.418 140.73 76.2485C140.73 77.2636 140.536 78.131 140.149 78.8507C139.78 79.5705 139.281 80.1611 138.654 80.6224C138.027 81.0654 137.307 81.3883 136.495 81.5914C135.702 81.7944 134.881 81.8959 134.032 81.8959H128.857V61.964H133.811ZM131.209 72.1791V80.0965H133.977C134.53 80.0965 135.056 80.0319 135.554 79.9027C136.071 79.7735 136.532 79.5613 136.938 79.266C137.344 78.9522 137.667 78.5554 137.907 78.0756C138.147 77.5773 138.267 76.9683 138.267 76.2485C138.267 74.9197 137.898 73.9139 137.16 73.231C136.422 72.5297 135.324 72.1791 133.866 72.1791H131.209ZM131.209 63.5973V70.4904H133.755C135.029 70.4904 135.96 70.1767 136.551 69.5492C137.16 68.9217 137.464 68.0543 137.464 66.947C137.464 65.7658 137.123 64.9169 136.44 64.4001C135.776 63.8649 134.881 63.5973 133.755 63.5973H131.209Z" fill="#525252"/>
<path d="M158.396 81.8959L157.095 78.1586H150.176L148.848 81.8959H146.551L152.363 66.3933H155.075L160.859 81.8959H158.396ZM150.785 76.3869H156.487L153.691 68.2204L150.785 76.3869Z" fill="#525252"/>
<path d="M176.416 81.8959L170.023 74.7813V81.8959H167.781V66.3933H170.023V73.0926L175.752 66.3933H178.464L172.043 73.7847L179.294 81.8959H176.416Z" fill="#525252"/>
<path d="M194.945 74.9197H188.634V80.0411H195.747V81.8959H186.365V66.3933H195.747V68.2481H188.634V73.1203H194.945V74.9197Z" fill="#525252"/>
<path d="M213.273 81.8959L209.232 76.1931H206.299V81.8959H204.057V66.3933H208.181C209.122 66.3933 209.98 66.4856 210.755 66.6701C211.529 66.8547 212.194 67.15 212.747 67.556C213.301 67.962 213.734 68.4788 214.048 69.1062C214.362 69.7153 214.518 70.4443 214.518 71.2932C214.518 72.5851 214.232 73.5817 213.661 74.283C213.089 74.9843 212.36 75.4918 211.474 75.8056L215.93 81.8959H213.273ZM206.299 68.1097V74.4768H208.125C209.509 74.4768 210.533 74.2369 211.197 73.757C211.88 73.2587 212.221 72.4375 212.221 71.2932C212.221 70.2043 211.88 69.4015 211.197 68.8848C210.533 68.368 209.546 68.1097 208.236 68.1097H206.299Z" fill="#525252"/>
<path d="M233 66.3933L227.686 75.9163V81.8959H225.472V75.9163L220.075 66.3933H222.622L226.635 73.8678L230.731 66.3933H233Z" fill="#525252"/>
<path d="M5.82112 61.964C6.83589 61.964 7.76764 62.0932 8.61637 62.3516C9.46509 62.5915 10.1939 62.979 10.8027 63.5142C11.4116 64.031 11.8821 64.6862 12.2142 65.4798C12.5463 66.2733 12.7124 67.2146 12.7124 68.3034C12.7124 69.3923 12.5371 70.3428 12.1865 71.1548C11.8544 71.9484 11.3839 72.6128 10.7751 73.148C10.1662 73.6647 9.43741 74.0523 8.58869 74.3107C7.73997 74.5691 6.80822 74.6982 5.79344 74.6982H3.69008V81.8959H1.33765V61.964H5.82112ZM3.69008 63.7634V72.8988H5.76576C8.79165 72.8988 10.3046 71.367 10.3046 68.3034C10.3046 66.8639 9.93558 65.7474 9.19756 64.9538C8.47799 64.1602 7.37096 63.7634 5.87647 63.7634H3.69008Z" stroke="#F5F5F5" stroke-width="2" mask="url(#path-7-outside-1_22_96)"/>
<path d="M28.1742 81.8959L26.8735 78.1586H19.9546L18.6261 81.8959H16.329L22.1409 66.3933H24.8532L30.6374 81.8959H28.1742ZM20.5634 76.3869H26.2646L23.4694 68.2204L20.5634 76.3869Z" stroke="#F5F5F5" stroke-width="2" mask="url(#path-7-outside-1_22_96)"/>
<path d="M48.6296 66.3933V81.8959H45.4193L39.6904 68.9401V81.8959H37.5593V66.3933H40.8251L46.554 79.2106V66.3933H48.6296Z" stroke="#F5F5F5" stroke-width="2" mask="url(#path-7-outside-1_22_96)"/>
<path d="M67.3683 68.3588H62.7741V81.8959H60.5047V68.3588H55.9659V66.3933H67.3683V68.3588Z" stroke="#F5F5F5" stroke-width="2" mask="url(#path-7-outside-1_22_96)"/>
<path d="M73.7411 74.1446C73.7411 72.7051 73.9348 71.4685 74.3222 70.435C74.7097 69.4015 75.2263 68.5526 75.8721 67.8882C76.5178 67.2238 77.2559 66.7439 78.0861 66.4487C78.9349 66.1349 79.802 65.978 80.6877 65.978C81.5733 65.978 82.4312 66.1349 83.2615 66.4487C84.1102 66.7439 84.8575 67.2238 85.5032 67.8882C86.149 68.5526 86.6656 69.4015 87.0531 70.435C87.4405 71.4685 87.6343 72.7051 87.6343 74.1446C87.6343 75.5841 87.4405 76.8206 87.0531 77.8541C86.6656 78.8876 86.1398 79.7366 85.4756 80.401C84.8298 81.0654 84.0918 81.5544 83.2615 81.8682C82.4312 82.1635 81.5733 82.3111 80.6877 82.3111C79.802 82.3111 78.9441 82.1635 78.1138 81.8682C77.2835 81.5544 76.5363 81.0654 75.8721 80.401C75.2263 79.7366 74.7097 78.8876 74.3222 77.8541C73.9348 76.8206 73.7411 75.5841 73.7411 74.1446ZM76.0658 74.1446C76.0658 76.2485 76.4717 77.8357 77.2835 78.9061C78.1138 79.958 79.2485 80.484 80.6877 80.484C82.1268 80.484 83.2523 79.958 84.0641 78.9061C84.8944 77.8357 85.3095 76.2485 85.3095 74.1446C85.3095 72.0407 84.8944 70.4535 84.0641 69.3831C83.2523 68.3127 82.1268 67.7775 80.6877 67.7775C79.2485 67.7775 78.1138 68.3127 77.2835 69.3831C76.4717 70.435 76.0658 72.0222 76.0658 74.1446Z" stroke="#F5F5F5" stroke-width="2" mask="url(#path-7-outside-1_22_96)"/>
<path d="M107.273 66.3933V81.8959H104.063L98.3337 68.9401V81.8959H96.2027V66.3933H99.4685L105.197 79.2106V66.3933H107.273Z" stroke="#F5F5F5" stroke-width="2" mask="url(#path-7-outside-1_22_96)"/>
<path d="M133.811 61.964C135.877 61.964 137.39 62.3977 138.35 63.2651C139.327 64.1325 139.816 65.3321 139.816 66.8639C139.816 67.3807 139.733 67.879 139.567 68.3588C139.42 68.8202 139.198 69.2447 138.903 69.6322C138.626 70.0198 138.285 70.3612 137.879 70.6565C137.492 70.9333 137.067 71.1363 136.606 71.2655C137.104 71.3394 137.602 71.487 138.101 71.7085C138.599 71.9299 139.042 72.2437 139.429 72.6497C139.816 73.0373 140.13 73.5263 140.37 74.1169C140.61 74.7075 140.73 75.418 140.73 76.2485C140.73 77.2636 140.536 78.131 140.149 78.8507C139.78 79.5705 139.281 80.1611 138.654 80.6224C138.027 81.0654 137.307 81.3883 136.495 81.5914C135.702 81.7944 134.881 81.8959 134.032 81.8959H128.857V61.964H133.811ZM131.209 72.1791V80.0965H133.977C134.53 80.0965 135.056 80.0319 135.554 79.9027C136.071 79.7735 136.532 79.5613 136.938 79.266C137.344 78.9522 137.667 78.5554 137.907 78.0756C138.147 77.5773 138.267 76.9683 138.267 76.2485C138.267 74.9197 137.898 73.9139 137.16 73.231C136.422 72.5297 135.324 72.1791 133.866 72.1791H131.209ZM131.209 63.5973V70.4904H133.755C135.029 70.4904 135.96 70.1767 136.551 69.5492C137.16 68.9217 137.464 68.0543 137.464 66.947C137.464 65.7658 137.123 64.9169 136.44 64.4001C135.776 63.8649 134.881 63.5973 133.755 63.5973H131.209Z" stroke="#F5F5F5" stroke-width="2" mask="url(#path-7-outside-1_22_96)"/>
<path d="M158.396 81.8959L157.095 78.1586H150.176L148.848 81.8959H146.551L152.363 66.3933H155.075L160.859 81.8959H158.396ZM150.785 76.3869H156.487L153.691 68.2204L150.785 76.3869Z" stroke="#F5F5F5" stroke-width="2" mask="url(#path-7-outside-1_22_96)"/>
<path d="M176.416 81.8959L170.023 74.7813V81.8959H167.781V66.3933H170.023V73.0926L175.752 66.3933H178.464L172.043 73.7847L179.294 81.8959H176.416Z" stroke="#F5F5F5" stroke-width="2" mask="url(#path-7-outside-1_22_96)"/>
<path d="M194.945 74.9197H188.634V80.0411H195.747V81.8959H186.365V66.3933H195.747V68.2481H188.634V73.1203H194.945V74.9197Z" stroke="#F5F5F5" stroke-width="2" mask="url(#path-7-outside-1_22_96)"/>
<path d="M213.273 81.8959L209.232 76.1931H206.299V81.8959H204.057V66.3933H208.181C209.122 66.3933 209.98 66.4856 210.755 66.6701C211.529 66.8547 212.194 67.15 212.747 67.556C213.301 67.962 213.734 68.4788 214.048 69.1062C214.362 69.7153 214.518 70.4443 214.518 71.2932C214.518 72.5851 214.232 73.5817 213.661 74.283C213.089 74.9843 212.36 75.4918 211.474 75.8056L215.93 81.8959H213.273ZM206.299 68.1097V74.4768H208.125C209.509 74.4768 210.533 74.2369 211.197 73.757C211.88 73.2587 212.221 72.4375 212.221 71.2932C212.221 70.2043 211.88 69.4015 211.197 68.8848C210.533 68.368 209.546 68.1097 208.236 68.1097H206.299Z" stroke="#F5F5F5" stroke-width="2" mask="url(#path-7-outside-1_22_96)"/>
<path d="M233 66.3933L227.686 75.9163V81.8959H225.472V75.9163L220.075 66.3933H222.622L226.635 73.8678L230.731 66.3933H233Z" stroke="#F5F5F5" stroke-width="2" mask="url(#path-7-outside-1_22_96)"/>
</svg>
