<svg width="130" height="130" viewBox="0 0 130 130" fill="none" xmlns="http://www.w3.org/2000/svg">
<circle cx="65" cy="65" r="65" fill="#525252"/>
<path d="M120.97 65C120.97 95.9279 95.9046 121 64.985 121C34.0653 121 9 95.9279 9 65C9 34.0721 34.0653 9 64.985 9C95.9046 9 120.97 34.0721 120.97 65Z" fill="#F5F5F5"/>
<ellipse cx="32.1751" cy="64.8526" rx="11.5347" ry="11.5378" fill="#FFB3A4"/>
<ellipse cx="64.9849" cy="64.3398" rx="11.5347" ry="11.5378" fill="#D7E2D6"/>
<ellipse cx="97.7947" cy="64.3398" rx="11.5347" ry="11.5378" fill="#D3DE9A"/>
<ellipse cx="32.175" cy="64.8526" rx="8.97144" ry="8.97385" fill="#DD8270"/>
<ellipse cx="64.9849" cy="64.3398" rx="8.97144" ry="8.97385" fill="#BDCDBB"/>
<ellipse cx="97.7947" cy="64.3398" rx="8.97144" ry="8.97385" fill="#B5C07A"/>
<mask id="path-9-outside-1_119_236" maskUnits="userSpaceOnUse" x="8.64294" y="81.5873" width="115" height="12" fill="black">
<rect fill="white" x="8.64294" y="81.5873" width="115" height="12"/>
<path d="M11.7981 82.5873C12.2859 82.5873 12.7338 82.6494 13.1417 82.7736C13.5497 82.8889 13.9 83.0752 14.1927 83.3325C14.4854 83.5809 14.7115 83.8958 14.8712 84.2773C15.0308 84.6587 15.1106 85.1112 15.1106 85.6346C15.1106 86.158 15.0264 86.6148 14.8579 87.0052C14.6982 87.3866 14.4721 87.706 14.1794 87.9633C13.8867 88.2117 13.5364 88.398 13.1284 88.5222C12.7205 88.6464 12.2726 88.7085 11.7848 88.7085H10.7737V92.1683H9.64294V82.5873H11.7981ZM10.7737 83.4522V87.8435H11.7715C13.226 87.8435 13.9532 87.1072 13.9532 85.6346C13.9532 84.9426 13.7759 84.4059 13.4211 84.0244C13.0752 83.643 12.5431 83.4522 11.8247 83.4522H10.7737Z"/>
<path d="M22.5429 92.1683L21.9177 90.3718H18.5918L17.9533 92.1683H16.8491L19.6428 84.7164H20.9465L23.7269 92.1683H22.5429ZM18.8845 89.5202H21.625L20.2814 85.5946L18.8845 89.5202Z"/>
<path d="M32.3756 84.7164V92.1683H30.8324L28.0786 85.9406V92.1683H27.0542V84.7164H28.624L31.3778 90.8775V84.7164H32.3756Z"/>
<path d="M41.383 85.6612H39.1746V92.1683H38.0838V85.6612H35.902V84.7164H41.383V85.6612Z"/>
<path d="M44.4463 88.4423C44.4463 87.7504 44.5394 87.156 44.7257 86.6592C44.9119 86.1624 45.1602 85.7543 45.4707 85.435C45.7811 85.1156 46.1358 84.8849 46.5349 84.743C46.9429 84.5922 47.3597 84.5168 47.7854 84.5168C48.2111 84.5168 48.6236 84.5922 49.0227 84.743C49.4306 84.8849 49.7898 85.1156 50.1002 85.435C50.4106 85.7543 50.659 86.1624 50.8452 86.6592C51.0315 87.156 51.1246 87.7504 51.1246 88.4423C51.1246 89.1343 51.0315 89.7287 50.8452 90.2255C50.659 90.7223 50.4062 91.1303 50.0869 91.4497C49.7765 91.7691 49.4218 92.0042 49.0227 92.155C48.6236 92.2969 48.2111 92.3679 47.7854 92.3679C47.3597 92.3679 46.9473 92.2969 46.5482 92.155C46.1491 92.0042 45.7899 91.7691 45.4707 91.4497C45.1602 91.1303 44.9119 90.7223 44.7257 90.2255C44.5394 89.7287 44.4463 89.1343 44.4463 88.4423ZM45.5638 88.4423C45.5638 89.4537 45.7589 90.2166 46.1491 90.7311C46.5482 91.2368 47.0937 91.4896 47.7854 91.4896C48.4772 91.4896 49.0182 91.2368 49.4084 90.7311C49.8075 90.2166 50.0071 89.4537 50.0071 88.4423C50.0071 87.431 49.8075 86.6681 49.4084 86.1535C49.0182 85.639 48.4772 85.3817 47.7854 85.3817C47.0937 85.3817 46.5482 85.639 46.1491 86.1535C45.7589 86.6592 45.5638 87.4221 45.5638 88.4423Z"/>
<path d="M60.5647 84.7164V92.1683H59.0215L56.2677 85.9406V92.1683H55.2433V84.7164H56.8131L59.5669 90.8775V84.7164H60.5647Z"/>
<path d="M73.321 82.5873C74.3143 82.5873 75.0416 82.7958 75.5028 83.2127C75.9728 83.6297 76.2078 84.2063 76.2078 84.9426C76.2078 85.191 76.1679 85.4305 76.0881 85.6612C76.0172 85.883 75.9107 86.087 75.7688 86.2733C75.6358 86.4596 75.4717 86.6237 75.2766 86.7657C75.0904 86.8987 74.8864 86.9963 74.6647 87.0584C74.9041 87.0939 75.1436 87.1649 75.383 87.2713C75.6225 87.3778 75.8354 87.5286 76.0216 87.7238C76.2078 87.9101 76.3586 88.1451 76.4739 88.429C76.5892 88.7129 76.6469 89.0544 76.6469 89.4537C76.6469 89.9416 76.5537 90.3585 76.3675 90.7045C76.1901 91.0505 75.9507 91.3344 75.6491 91.5562C75.3476 91.7691 75.0017 91.9243 74.6115 92.0219C74.2301 92.1195 73.8354 92.1683 73.4274 92.1683H70.9397V82.5873H73.321ZM72.0705 87.4975V91.3033H73.4008C73.6669 91.3033 73.9197 91.2723 74.1591 91.2102C74.4075 91.1481 74.6292 91.0461 74.8243 90.9041C75.0194 90.7533 75.1746 90.5626 75.2899 90.3319C75.4052 90.0924 75.4629 89.7996 75.4629 89.4537C75.4629 88.8149 75.2855 88.3314 74.9307 88.0032C74.576 87.6661 74.0483 87.4975 73.3476 87.4975H72.0705ZM72.0705 83.3724V86.6858H73.2944C73.9064 86.6858 74.3542 86.535 74.6381 86.2334C74.9307 85.9318 75.0771 85.5148 75.0771 84.9825C75.0771 84.4148 74.913 84.0067 74.5848 83.7583C74.2656 83.501 73.8354 83.3724 73.2944 83.3724H72.0705Z"/>
<path d="M85.1389 92.1683L84.5136 90.3718H81.1878L80.5492 92.1683H79.445L82.2387 84.7164H83.5425L86.3229 92.1683H85.1389ZM81.4805 89.5202H84.2209L82.8773 85.5946L81.4805 89.5202Z"/>
<path d="M93.8008 92.1683L90.7277 88.7484V92.1683H89.6502V84.7164H90.7277V87.9367L93.4815 84.7164H94.7853L91.6989 88.2693L95.1844 92.1683H93.8008Z"/>
<path d="M102.707 88.8149H99.674V91.2767H103.093V92.1683H98.5832V84.7164H103.093V85.608H99.674V87.95H102.707V88.8149Z"/>
<path d="M111.517 92.1683L109.575 89.427H108.165V92.1683H107.087V84.7164H109.07C109.522 84.7164 109.934 84.7607 110.307 84.8495C110.679 84.9382 110.999 85.0801 111.265 85.2753C111.531 85.4704 111.739 85.7188 111.89 86.0205C112.041 86.3132 112.116 86.6636 112.116 87.0717C112.116 87.6927 111.979 88.1718 111.704 88.5089C111.429 88.846 111.078 89.0899 110.653 89.2407L112.795 92.1683H111.517ZM108.165 85.5414V88.602H109.043C109.708 88.602 110.2 88.4867 110.52 88.256C110.848 88.0165 111.012 87.6217 111.012 87.0717C111.012 86.5483 110.848 86.1624 110.52 85.914C110.2 85.6656 109.726 85.5414 109.096 85.5414H108.165Z"/>
<path d="M121 84.7164L118.446 89.294V92.1683H117.381V89.294L114.787 84.7164H116.011L117.94 88.3093L119.909 84.7164H121Z"/>
</mask>
<path d="M11.7981 82.5873C12.2859 82.5873 12.7338 82.6494 13.1417 82.7736C13.5497 82.8889 13.9 83.0752 14.1927 83.3325C14.4854 83.5809 14.7115 83.8958 14.8712 84.2773C15.0308 84.6587 15.1106 85.1112 15.1106 85.6346C15.1106 86.158 15.0264 86.6148 14.8579 87.0052C14.6982 87.3866 14.4721 87.706 14.1794 87.9633C13.8867 88.2117 13.5364 88.398 13.1284 88.5222C12.7205 88.6464 12.2726 88.7085 11.7848 88.7085H10.7737V92.1683H9.64294V82.5873H11.7981ZM10.7737 83.4522V87.8435H11.7715C13.226 87.8435 13.9532 87.1072 13.9532 85.6346C13.9532 84.9426 13.7759 84.4059 13.4211 84.0244C13.0752 83.643 12.5431 83.4522 11.8247 83.4522H10.7737Z" fill="#525252"/>
<path d="M22.5429 92.1683L21.9177 90.3718H18.5918L17.9533 92.1683H16.8491L19.6428 84.7164H20.9465L23.7269 92.1683H22.5429ZM18.8845 89.5202H21.625L20.2814 85.5946L18.8845 89.5202Z" fill="#525252"/>
<path d="M32.3756 84.7164V92.1683H30.8324L28.0786 85.9406V92.1683H27.0542V84.7164H28.624L31.3778 90.8775V84.7164H32.3756Z" fill="#525252"/>
<path d="M41.383 85.6612H39.1746V92.1683H38.0838V85.6612H35.902V84.7164H41.383V85.6612Z" fill="#525252"/>
<path d="M44.4463 88.4423C44.4463 87.7504 44.5394 87.156 44.7257 86.6592C44.9119 86.1624 45.1602 85.7543 45.4707 85.435C45.7811 85.1156 46.1358 84.8849 46.5349 84.743C46.9429 84.5922 47.3597 84.5168 47.7854 84.5168C48.2111 84.5168 48.6236 84.5922 49.0227 84.743C49.4306 84.8849 49.7898 85.1156 50.1002 85.435C50.4106 85.7543 50.659 86.1624 50.8452 86.6592C51.0315 87.156 51.1246 87.7504 51.1246 88.4423C51.1246 89.1343 51.0315 89.7287 50.8452 90.2255C50.659 90.7223 50.4062 91.1303 50.0869 91.4497C49.7765 91.7691 49.4218 92.0042 49.0227 92.155C48.6236 92.2969 48.2111 92.3679 47.7854 92.3679C47.3597 92.3679 46.9473 92.2969 46.5482 92.155C46.1491 92.0042 45.7899 91.7691 45.4707 91.4497C45.1602 91.1303 44.9119 90.7223 44.7257 90.2255C44.5394 89.7287 44.4463 89.1343 44.4463 88.4423ZM45.5638 88.4423C45.5638 89.4537 45.7589 90.2166 46.1491 90.7311C46.5482 91.2368 47.0937 91.4896 47.7854 91.4896C48.4772 91.4896 49.0182 91.2368 49.4084 90.7311C49.8075 90.2166 50.0071 89.4537 50.0071 88.4423C50.0071 87.431 49.8075 86.6681 49.4084 86.1535C49.0182 85.639 48.4772 85.3817 47.7854 85.3817C47.0937 85.3817 46.5482 85.639 46.1491 86.1535C45.7589 86.6592 45.5638 87.4221 45.5638 88.4423Z" fill="#525252"/>
<path d="M60.5647 84.7164V92.1683H59.0215L56.2677 85.9406V92.1683H55.2433V84.7164H56.8131L59.5669 90.8775V84.7164H60.5647Z" fill="#525252"/>
<path d="M73.321 82.5873C74.3143 82.5873 75.0416 82.7958 75.5028 83.2127C75.9728 83.6297 76.2078 84.2063 76.2078 84.9426C76.2078 85.191 76.1679 85.4305 76.0881 85.6612C76.0172 85.883 75.9107 86.087 75.7688 86.2733C75.6358 86.4596 75.4717 86.6237 75.2766 86.7657C75.0904 86.8987 74.8864 86.9963 74.6647 87.0584C74.9041 87.0939 75.1436 87.1649 75.383 87.2713C75.6225 87.3778 75.8354 87.5286 76.0216 87.7238C76.2078 87.9101 76.3586 88.1451 76.4739 88.429C76.5892 88.7129 76.6469 89.0544 76.6469 89.4537C76.6469 89.9416 76.5537 90.3585 76.3675 90.7045C76.1901 91.0505 75.9507 91.3344 75.6491 91.5562C75.3476 91.7691 75.0017 91.9243 74.6115 92.0219C74.2301 92.1195 73.8354 92.1683 73.4274 92.1683H70.9397V82.5873H73.321ZM72.0705 87.4975V91.3033H73.4008C73.6669 91.3033 73.9197 91.2723 74.1591 91.2102C74.4075 91.1481 74.6292 91.0461 74.8243 90.9041C75.0194 90.7533 75.1746 90.5626 75.2899 90.3319C75.4052 90.0924 75.4629 89.7996 75.4629 89.4537C75.4629 88.8149 75.2855 88.3314 74.9307 88.0032C74.576 87.6661 74.0483 87.4975 73.3476 87.4975H72.0705ZM72.0705 83.3724V86.6858H73.2944C73.9064 86.6858 74.3542 86.535 74.6381 86.2334C74.9307 85.9318 75.0771 85.5148 75.0771 84.9825C75.0771 84.4148 74.913 84.0067 74.5848 83.7583C74.2656 83.501 73.8354 83.3724 73.2944 83.3724H72.0705Z" fill="#525252"/>
<path d="M85.1389 92.1683L84.5136 90.3718H81.1878L80.5492 92.1683H79.445L82.2387 84.7164H83.5425L86.3229 92.1683H85.1389ZM81.4805 89.5202H84.2209L82.8773 85.5946L81.4805 89.5202Z" fill="#525252"/>
<path d="M93.8008 92.1683L90.7277 88.7484V92.1683H89.6502V84.7164H90.7277V87.9367L93.4815 84.7164H94.7853L91.6989 88.2693L95.1844 92.1683H93.8008Z" fill="#525252"/>
<path d="M102.707 88.8149H99.674V91.2767H103.093V92.1683H98.5832V84.7164H103.093V85.608H99.674V87.95H102.707V88.8149Z" fill="#525252"/>
<path d="M111.517 92.1683L109.575 89.427H108.165V92.1683H107.087V84.7164H109.07C109.522 84.7164 109.934 84.7607 110.307 84.8495C110.679 84.9382 110.999 85.0801 111.265 85.2753C111.531 85.4704 111.739 85.7188 111.89 86.0205C112.041 86.3132 112.116 86.6636 112.116 87.0717C112.116 87.6927 111.979 88.1718 111.704 88.5089C111.429 88.846 111.078 89.0899 110.653 89.2407L112.795 92.1683H111.517ZM108.165 85.5414V88.602H109.043C109.708 88.602 110.2 88.4867 110.52 88.256C110.848 88.0165 111.012 87.6217 111.012 87.0717C111.012 86.5483 110.848 86.1624 110.52 85.914C110.2 85.6656 109.726 85.5414 109.096 85.5414H108.165Z" fill="#525252"/>
<path d="M121 84.7164L118.446 89.294V92.1683H117.381V89.294L114.787 84.7164H116.011L117.94 88.3093L119.909 84.7164H121Z" fill="#525252"/>
<path d="M11.7981 82.5873C12.2859 82.5873 12.7338 82.6494 13.1417 82.7736C13.5497 82.8889 13.9 83.0752 14.1927 83.3325C14.4854 83.5809 14.7115 83.8958 14.8712 84.2773C15.0308 84.6587 15.1106 85.1112 15.1106 85.6346C15.1106 86.158 15.0264 86.6148 14.8579 87.0052C14.6982 87.3866 14.4721 87.706 14.1794 87.9633C13.8867 88.2117 13.5364 88.398 13.1284 88.5222C12.7205 88.6464 12.2726 88.7085 11.7848 88.7085H10.7737V92.1683H9.64294V82.5873H11.7981ZM10.7737 83.4522V87.8435H11.7715C13.226 87.8435 13.9532 87.1072 13.9532 85.6346C13.9532 84.9426 13.7759 84.4059 13.4211 84.0244C13.0752 83.643 12.5431 83.4522 11.8247 83.4522H10.7737Z" stroke="#F5F5F5" stroke-width="2" mask="url(#path-9-outside-1_119_236)"/>
<path d="M22.5429 92.1683L21.9177 90.3718H18.5918L17.9533 92.1683H16.8491L19.6428 84.7164H20.9465L23.7269 92.1683H22.5429ZM18.8845 89.5202H21.625L20.2814 85.5946L18.8845 89.5202Z" stroke="#F5F5F5" stroke-width="2" mask="url(#path-9-outside-1_119_236)"/>
<path d="M32.3756 84.7164V92.1683H30.8324L28.0786 85.9406V92.1683H27.0542V84.7164H28.624L31.3778 90.8775V84.7164H32.3756Z" stroke="#F5F5F5" stroke-width="2" mask="url(#path-9-outside-1_119_236)"/>
<path d="M41.383 85.6612H39.1746V92.1683H38.0838V85.6612H35.902V84.7164H41.383V85.6612Z" stroke="#F5F5F5" stroke-width="2" mask="url(#path-9-outside-1_119_236)"/>
<path d="M44.4463 88.4423C44.4463 87.7504 44.5394 87.156 44.7257 86.6592C44.9119 86.1624 45.1602 85.7543 45.4707 85.435C45.7811 85.1156 46.1358 84.8849 46.5349 84.743C46.9429 84.5922 47.3597 84.5168 47.7854 84.5168C48.2111 84.5168 48.6236 84.5922 49.0227 84.743C49.4306 84.8849 49.7898 85.1156 50.1002 85.435C50.4106 85.7543 50.659 86.1624 50.8452 86.6592C51.0315 87.156 51.1246 87.7504 51.1246 88.4423C51.1246 89.1343 51.0315 89.7287 50.8452 90.2255C50.659 90.7223 50.4062 91.1303 50.0869 91.4497C49.7765 91.7691 49.4218 92.0042 49.0227 92.155C48.6236 92.2969 48.2111 92.3679 47.7854 92.3679C47.3597 92.3679 46.9473 92.2969 46.5482 92.155C46.1491 92.0042 45.7899 91.7691 45.4707 91.4497C45.1602 91.1303 44.9119 90.7223 44.7257 90.2255C44.5394 89.7287 44.4463 89.1343 44.4463 88.4423ZM45.5638 88.4423C45.5638 89.4537 45.7589 90.2166 46.1491 90.7311C46.5482 91.2368 47.0937 91.4896 47.7854 91.4896C48.4772 91.4896 49.0182 91.2368 49.4084 90.7311C49.8075 90.2166 50.0071 89.4537 50.0071 88.4423C50.0071 87.431 49.8075 86.6681 49.4084 86.1535C49.0182 85.639 48.4772 85.3817 47.7854 85.3817C47.0937 85.3817 46.5482 85.639 46.1491 86.1535C45.7589 86.6592 45.5638 87.4221 45.5638 88.4423Z" stroke="#F5F5F5" stroke-width="2" mask="url(#path-9-outside-1_119_236)"/>
<path d="M60.5647 84.7164V92.1683H59.0215L56.2677 85.9406V92.1683H55.2433V84.7164H56.8131L59.5669 90.8775V84.7164H60.5647Z" stroke="#F5F5F5" stroke-width="2" mask="url(#path-9-outside-1_119_236)"/>
<path d="M73.321 82.5873C74.3143 82.5873 75.0416 82.7958 75.5028 83.2127C75.9728 83.6297 76.2078 84.2063 76.2078 84.9426C76.2078 85.191 76.1679 85.4305 76.0881 85.6612C76.0172 85.883 75.9107 86.087 75.7688 86.2733C75.6358 86.4596 75.4717 86.6237 75.2766 86.7657C75.0904 86.8987 74.8864 86.9963 74.6647 87.0584C74.9041 87.0939 75.1436 87.1649 75.383 87.2713C75.6225 87.3778 75.8354 87.5286 76.0216 87.7238C76.2078 87.9101 76.3586 88.1451 76.4739 88.429C76.5892 88.7129 76.6469 89.0544 76.6469 89.4537C76.6469 89.9416 76.5537 90.3585 76.3675 90.7045C76.1901 91.0505 75.9507 91.3344 75.6491 91.5562C75.3476 91.7691 75.0017 91.9243 74.6115 92.0219C74.2301 92.1195 73.8354 92.1683 73.4274 92.1683H70.9397V82.5873H73.321ZM72.0705 87.4975V91.3033H73.4008C73.6669 91.3033 73.9197 91.2723 74.1591 91.2102C74.4075 91.1481 74.6292 91.0461 74.8243 90.9041C75.0194 90.7533 75.1746 90.5626 75.2899 90.3319C75.4052 90.0924 75.4629 89.7996 75.4629 89.4537C75.4629 88.8149 75.2855 88.3314 74.9307 88.0032C74.576 87.6661 74.0483 87.4975 73.3476 87.4975H72.0705ZM72.0705 83.3724V86.6858H73.2944C73.9064 86.6858 74.3542 86.535 74.6381 86.2334C74.9307 85.9318 75.0771 85.5148 75.0771 84.9825C75.0771 84.4148 74.913 84.0067 74.5848 83.7583C74.2656 83.501 73.8354 83.3724 73.2944 83.3724H72.0705Z" stroke="#F5F5F5" stroke-width="2" mask="url(#path-9-outside-1_119_236)"/>
<path d="M85.1389 92.1683L84.5136 90.3718H81.1878L80.5492 92.1683H79.445L82.2387 84.7164H83.5425L86.3229 92.1683H85.1389ZM81.4805 89.5202H84.2209L82.8773 85.5946L81.4805 89.5202Z" stroke="#F5F5F5" stroke-width="2" mask="url(#path-9-outside-1_119_236)"/>
<path d="M93.8008 92.1683L90.7277 88.7484V92.1683H89.6502V84.7164H90.7277V87.9367L93.4815 84.7164H94.7853L91.6989 88.2693L95.1844 92.1683H93.8008Z" stroke="#F5F5F5" stroke-width="2" mask="url(#path-9-outside-1_119_236)"/>
<path d="M102.707 88.8149H99.674V91.2767H103.093V92.1683H98.5832V84.7164H103.093V85.608H99.674V87.95H102.707V88.8149Z" stroke="#F5F5F5" stroke-width="2" mask="url(#path-9-outside-1_119_236)"/>
<path d="M111.517 92.1683L109.575 89.427H108.165V92.1683H107.087V84.7164H109.07C109.522 84.7164 109.934 84.7607 110.307 84.8495C110.679 84.9382 110.999 85.0801 111.265 85.2753C111.531 85.4704 111.739 85.7188 111.89 86.0205C112.041 86.3132 112.116 86.6636 112.116 87.0717C112.116 87.6927 111.979 88.1718 111.704 88.5089C111.429 88.846 111.078 89.0899 110.653 89.2407L112.795 92.1683H111.517ZM108.165 85.5414V88.602H109.043C109.708 88.602 110.2 88.4867 110.52 88.256C110.848 88.0165 111.012 87.6217 111.012 87.0717C111.012 86.5483 110.848 86.1624 110.52 85.914C110.2 85.6656 109.726 85.5414 109.096 85.5414H108.165Z" stroke="#F5F5F5" stroke-width="2" mask="url(#path-9-outside-1_119_236)"/>
<path d="M121 84.7164L118.446 89.294V92.1683H117.381V89.294L114.787 84.7164H116.011L117.94 88.3093L119.909 84.7164H121Z" stroke="#F5F5F5" stroke-width="2" mask="url(#path-9-outside-1_119_236)"/>
</svg>
