<svg width="31" height="31" viewBox="0 0 31 31" fill="none" xmlns="http://www.w3.org/2000/svg">
<path d="M28.625 21.3333H8.20829C7.82152 21.3333 7.45059 21.1796 7.1771 20.9062C6.90361 20.6327 6.74996 20.2617 6.74996 19.875C6.74996 19.4882 6.90361 19.1173 7.1771 18.8438C7.45059 18.5703 7.82152 18.4166 8.20829 18.4166H23.4333C24.4084 18.4167 25.3556 18.091 26.1245 17.4912C26.8933 16.8914 27.4398 16.052 27.677 15.1062L30.0833 5.64163C30.1379 5.42639 30.1427 5.20152 30.0972 4.98417C30.0517 4.76682 29.9571 4.56273 29.8208 4.38746C29.679 4.20769 29.4968 4.06385 29.2891 3.96758C29.0813 3.8713 28.8538 3.8253 28.625 3.83329H7.85829C7.55742 2.98228 7.00069 2.24517 6.26443 1.72299C5.52817 1.20082 4.64842 0.919163 3.74579 0.916626H2.37496C1.98819 0.916626 1.61725 1.07027 1.34376 1.34376C1.07027 1.61725 0.916626 1.98819 0.916626 2.37496C0.916626 2.76173 1.07027 3.13267 1.34376 3.40616C1.61725 3.67965 1.98819 3.83329 2.37496 3.83329H3.74579C4.07893 3.82359 4.40533 3.92828 4.67068 4.12994C4.93602 4.3316 5.12428 4.61806 5.20413 4.94163L5.29163 5.64163L7.81454 15.5C6.65422 15.5522 5.56216 16.0632 4.77861 16.9206C3.99506 17.778 3.5842 18.9115 3.63642 20.0718C3.68863 21.2322 4.19964 22.3242 5.05704 23.1078C5.91443 23.8913 7.04797 24.3022 8.20829 24.25H8.47079C8.23095 24.9108 8.15388 25.6197 8.24611 26.3166C8.33834 27.0135 8.59715 27.6779 9.00063 28.2536C9.40411 28.8293 9.94038 29.2993 10.564 29.6237C11.1877 29.9482 11.8803 30.1176 12.5833 30.1176C13.2863 30.1176 13.9789 29.9482 14.6026 29.6237C15.2262 29.2993 15.7625 28.8293 16.166 28.2536C16.5694 27.6779 16.8282 27.0135 16.9205 26.3166C17.0127 25.6197 16.9356 24.9108 16.6958 24.25H20.1375C19.8976 24.9108 19.8205 25.6197 19.9128 26.3166C20.005 27.0135 20.2638 27.6779 20.6673 28.2536C21.0708 28.8293 21.607 29.2993 22.2307 29.6237C22.8543 29.9482 23.547 30.1176 24.25 30.1176C24.953 30.1176 25.6456 29.9482 26.2692 29.6237C26.8929 29.2993 27.4291 28.8293 27.8326 28.2536C28.2361 27.6779 28.4949 27.0135 28.5871 26.3166C28.6794 25.6197 28.6023 24.9108 28.3625 24.25H28.625C29.0117 24.25 29.3827 24.0963 29.6562 23.8228C29.9296 23.5493 30.0833 23.1784 30.0833 22.7916C30.0833 22.4049 29.9296 22.0339 29.6562 21.7604C29.3827 21.4869 29.0117 21.3333 28.625 21.3333ZM26.7583 6.74996L24.8479 14.3916C24.768 14.7152 24.5798 15.0017 24.3144 15.2033C24.0491 15.405 23.7227 15.5097 23.3895 15.5H10.8041L8.61663 6.74996H26.7583ZM12.5833 27.1666C12.2949 27.1666 12.0129 27.0811 11.7731 26.9209C11.5333 26.7606 11.3463 26.5328 11.236 26.2664C11.1256 25.9999 11.0967 25.7067 11.153 25.4238C11.2093 25.1409 11.3481 24.881 11.5521 24.6771C11.756 24.4731 12.0159 24.3343 12.2988 24.278C12.5817 24.2217 12.8749 24.2506 13.1414 24.361C13.4078 24.4713 13.6356 24.6583 13.7959 24.8981C13.9561 25.1379 14.0416 25.4199 14.0416 25.7083C14.0416 26.0951 13.888 26.466 13.6145 26.7395C13.341 27.013 12.9701 27.1666 12.5833 27.1666ZM24.25 27.1666C23.9615 27.1666 23.6796 27.0811 23.4398 26.9209C23.1999 26.7606 23.013 26.5328 22.9026 26.2664C22.7923 25.9999 22.7634 25.7067 22.8196 25.4238C22.8759 25.1409 23.0148 24.881 23.2188 24.6771C23.4227 24.4731 23.6826 24.3343 23.9655 24.278C24.2483 24.2217 24.5416 24.2506 24.808 24.361C25.0745 24.4713 25.3023 24.6583 25.4625 24.8981C25.6228 25.1379 25.7083 25.4199 25.7083 25.7083C25.7083 26.0951 25.5546 26.466 25.2812 26.7395C25.0077 27.013 24.6367 27.1666 24.25 27.1666Z" fill="#F5F5F5"/>
</svg>
