<svg width="34" height="34" viewBox="0 0 34 34" fill="none" xmlns="http://www.w3.org/2000/svg">
<path d="M33.6666 7.91671C33.6479 7.19766 33.5923 6.48005 33.5 5.76671C33.3755 5.14191 33.1681 4.53656 32.8833 3.96671C32.5854 3.34855 32.1854 2.78509 31.7 2.30004C31.2101 1.82038 30.6477 1.42103 30.0333 1.11671C29.4627 0.837448 28.8574 0.635663 28.2333 0.516707C27.5268 0.410873 26.8142 0.349641 26.1 0.333374H7.91665C7.1976 0.352101 6.47999 0.40773 5.76665 0.500041C5.14185 0.624488 4.53649 0.83188 3.96665 1.11671C3.34849 1.4146 2.78502 1.81466 2.29998 2.30004C1.82032 2.78989 1.42096 3.35236 1.11665 3.96671C0.837387 4.53731 0.635602 5.14267 0.516646 5.76671C0.410812 6.47327 0.34958 7.18579 0.333313 7.90004C0.333313 8.21671 0.333313 8.66671 0.333313 8.80004V25.2C0.333313 25.3834 0.333313 25.7834 0.333313 26.0834C0.35204 26.8024 0.407669 27.52 0.49998 28.2334C0.624427 28.8582 0.831819 29.4635 1.11665 30.0334C1.41454 30.6515 1.8146 31.215 2.29998 31.7C2.78983 32.1797 3.3523 32.5791 3.96665 32.8834C4.53725 33.1626 5.14261 33.3644 5.76665 33.4834C6.4732 33.5892 7.18573 33.6504 7.89998 33.6667H26.0833C26.8024 33.648 27.52 33.5924 28.2333 33.5C28.8581 33.3756 29.4635 33.1682 30.0333 32.8834C30.6515 32.5855 31.2149 32.1854 31.7 31.7C32.1796 31.2102 32.579 30.6477 32.8833 30.0334C33.1626 29.4628 33.3644 28.8574 33.4833 28.2334C33.5891 27.5268 33.6504 26.8143 33.6666 26.1C33.6666 25.7834 33.6666 25.3834 33.6666 25.2V8.80004C33.6666 8.66671 33.6666 8.21671 33.6666 7.91671ZM17.3833 28.6667C15.3817 28.6568 13.4152 28.1408 11.6666 27.1667L5.33331 28.8334L6.99998 22.6334C5.92517 20.8275 5.34996 18.7682 5.33331 16.6667C5.33995 14.3049 6.04532 11.9979 7.36058 10.0362C8.67584 8.07454 10.5422 6.54593 12.7245 5.6429C14.9069 4.73988 17.3076 4.50283 19.6245 4.9616C21.9413 5.42038 24.0705 6.55448 25.744 8.22105C27.4175 9.88762 28.5605 12.0121 29.0289 14.327C29.4973 16.6419 29.2702 19.0436 28.3763 21.2297C27.4824 23.4158 25.9615 25.2885 24.0053 26.6119C22.0491 27.9353 19.7451 28.6503 17.3833 28.6667V28.6667ZM17.3833 6.78337C15.6163 6.80359 13.8863 7.29168 12.3692 8.19794C10.8522 9.10419 9.60244 10.3963 8.74714 11.9426C7.89184 13.4889 7.46156 15.2342 7.50012 17.0009C7.53868 18.7676 8.04469 20.4925 8.96665 22L9.19998 22.3834L8.19998 26.0334L12 25L12.3666 25.2167C13.8826 26.1096 15.6073 26.5868 17.3666 26.6V26.6C20.0188 26.6 22.5624 25.5465 24.4377 23.6711C26.3131 21.7957 27.3666 19.2522 27.3666 16.6C27.3666 13.9479 26.3131 11.4043 24.4377 9.52897C22.5624 7.65361 20.0188 6.60004 17.3666 6.60004L17.3833 6.78337ZM23.2166 20.9834C22.9984 21.3475 22.7061 21.6617 22.3587 21.9058C22.0113 22.1498 21.6165 22.3182 21.2 22.4C20.5775 22.5138 19.9367 22.4738 19.3333 22.2834C18.7656 22.1059 18.209 21.8944 17.6666 21.65C15.6062 20.6161 13.849 19.0657 12.5666 17.15C11.8698 16.2625 11.447 15.191 11.35 14.0667C11.3401 13.5997 11.4284 13.1358 11.6093 12.7051C11.7902 12.2744 12.0596 11.8866 12.4 11.5667C12.5003 11.453 12.6233 11.3616 12.7611 11.2985C12.8989 11.2353 13.0484 11.2018 13.2 11.2H13.6666C13.85 11.2 14.1 11.2 14.3333 11.7167C14.5666 12.2334 15.1833 13.7834 15.2666 13.9334C15.3076 14.0133 15.329 14.1019 15.329 14.1917C15.329 14.2815 15.3076 14.3701 15.2666 14.45C15.193 14.6312 15.0918 14.7998 14.9666 14.95C14.8166 15.1334 14.65 15.35 14.5166 15.4834C14.3833 15.6167 14.2166 15.7834 14.3833 16.0834C14.8368 16.8487 15.3981 17.5447 16.05 18.15C16.7599 18.7773 17.5715 19.2789 18.45 19.6334C18.75 19.7834 18.9333 19.7667 19.1 19.6334C19.2666 19.5 19.85 18.7667 20.05 18.4667C20.25 18.1667 20.45 18.2167 20.7166 18.3167C20.9833 18.4167 22.4666 19.1334 22.7666 19.2834C23.0666 19.4334 23.25 19.5 23.3333 19.6334C23.4056 20.0696 23.3654 20.517 23.2166 20.9334V20.9834Z" fill="#D3DE9A"/>
</svg>
